<?xml version="1.0" encoding="UTF-8"?>
<svg id="Layer_2" data-name="Layer 2" xmlns="http://www.w3.org/2000/svg" xmlns:xlink="http://www.w3.org/1999/xlink" viewBox="0 0 551.81 164">
  <defs>
    <style>
      .cls-1 {
        clip-path: url(#clippath-11);
      }

      .cls-2 {
        clip-path: url(#clippath-16);
      }

      .cls-3 {
        fill: url(#linear-gradient);
      }

      .cls-3, .cls-4, .cls-5, .cls-6, .cls-7, .cls-8, .cls-9, .cls-10, .cls-11, .cls-12, .cls-13, .cls-14, .cls-15, .cls-16, .cls-17, .cls-18, .cls-19, .cls-20, .cls-21, .cls-22, .cls-23, .cls-24 {
        strokewidth: 0px;
      }

      .cls-4 {
        fill: url(#linear-gradient-12);
      }

      .cls-4, .cls-7, .cls-12, .cls-21, .cls-22 {
        mix-blend-mode: multiply;
      }

      .cls-25 {
        filter: url(#luminosity-noclip-7);
      }

      .cls-26 {
        filter: url(#luminosity-noclip-5);
      }

      .cls-5 {
        fill: #26256b;
      }

      .cls-27 {
        mask: url(#mask-2);
      }

      .cls-28 {
        fill: url(#linear-gradient-6);
      }

      .cls-29 {
        clip-path: url(#clippath-2);
      }

      .cls-30 {
        clip-path: url(#clippath-13);
      }

      .cls-31 {
        isolation: isolate;
      }

      .cls-32 {
        clip-path: url(#clippath-15);
      }

      .cls-6 {
        fill: url(#linear-gradient-15);
      }

      .cls-33 {
        clip-path: url(#clippath-6);
      }

      .cls-7 {
        fill: url(#radial-gradient);
      }

      .cls-8 {
        fill: url(#linear-gradient-11);
      }

      .cls-34 {
        mask: url(#mask-3);
      }

      .cls-9 {
        fill: url(#linear-gradient-5);
      }

      .cls-10 {
        fill: none;
      }

      .cls-11 {
        fill: #6b6b6b;
      }

      .cls-12 {
        fill: url(#linear-gradient-9);
      }

      .cls-35 {
        clip-path: url(#clippath-7);
      }

      .cls-36 {
        mask: url(#mask-9);
      }

      .cls-37 {
        clip-path: url(#clippath-1);
      }

      .cls-38 {
        clip-path: url(#clippath-4);
      }

      .cls-39 {
        mask: url(#mask-5);
      }

      .cls-13 {
        fill: url(#linear-gradient-13);
      }

      .cls-14 {
        fill: #fff;
        opacity: .31;
      }

      .cls-40 {
        clip-path: url(#clippath-12);
      }

      .cls-15 {
        fill: #787878;
      }

      .cls-41 {
        filter: url(#luminosity-noclip-9);
      }

      .cls-16 {
        fill: url(#linear-gradient-7);
      }

      .cls-17 {
        fill: url(#radial-gradient-2);
      }

      .cls-42 {
        mask: url(#mask-4);
      }

      .cls-18 {
        fill: url(#linear-gradient-3);
      }

      .cls-43 {
        clip-path: url(#clippath-9);
      }

      .cls-44 {
        clip-path: url(#clippath);
      }

      .cls-19 {
        fill: url(#linear-gradient-14);
        opacity: .29;
      }

      .cls-45 {
        clip-path: url(#clippath-19);
      }

      .cls-46 {
        mask: url(#mask-6);
      }

      .cls-47 {
        clip-path: url(#clippath-3);
      }

      .cls-20 {
        fill: url(#linear-gradient-8);
      }

      .cls-48 {
        clip-path: url(#clippath-8);
      }

      .cls-49 {
        filter: url(#luminosity-noclip);
      }

      .cls-50 {
        mask: url(#mask-1);
      }

      .cls-51 {
        mask: url(#mask);
      }

      .cls-21 {
        fill: url(#radial-gradient-3);
      }

      .cls-52 {
        clip-path: url(#clippath-18);
      }

      .cls-53 {
        clip-path: url(#clippath-14);
      }

      .cls-54 {
        clip-path: url(#clippath-17);
      }

      .cls-55 {
        clip-path: url(#clippath-5);
      }

      .cls-22 {
        fill: url(#linear-gradient-2);
      }

      .cls-56 {
        mask: url(#mask-7);
      }

      .cls-23 {
        fill: url(#linear-gradient-10);
      }

      .cls-57 {
        clip-path: url(#clippath-10);
      }

      .cls-24, .cls-58 {
        fill: url(#linear-gradient-4);
      }

      .cls-59 {
        opacity: .09;
      }

      .cls-60 {
        filter: url(#luminosity-noclip-3);
      }
    </style>
    <linearGradient id="linear-gradient" x1="128.59" y1="30.47" x2="177.52" y2="140.96" gradientUnits="userSpaceOnUse">
      <stop offset=".35" stop-color="#3392c6"/>
      <stop offset=".5" stop-color="#4dbdb6"/>
      <stop offset=".53" stop-color="#53bcaf"/>
      <stop offset=".58" stop-color="#66bb9e"/>
      <stop offset=".64" stop-color="#86b982"/>
      <stop offset=".65" stop-color="#8cb97d"/>
      <stop offset=".68" stop-color="#8db978"/>
      <stop offset=".72" stop-color="#93bc6c"/>
      <stop offset=".75" stop-color="#9cc058"/>
      <stop offset=".79" stop-color="#a8c53b"/>
      <stop offset=".79" stop-color="#aac639"/>
      <stop offset=".94" stop-color="#b9ce33"/>
    </linearGradient>
    <filter id="luminosity-noclip" x="109.14" y="33.69" width="86.69" height="120.1" color-interpolation-filters="sRGB" filterUnits="userSpaceOnUse">
      <feFlood flood-color="#fff" result="bg"/>
      <feBlend in="SourceGraphic" in2="bg"/>
    </filter>
    <clipPath id="clippath">
      <polygon class="cls-10" points="134.33 127.08 168.12 128.98 170.74 57.64 136.95 55.74 134.33 127.08"/>
    </clipPath>
    <clipPath id="clippath-1">
      <path class="cls-10" d="m152.08,80.22c-1.9-11.7-5.27-19.25-9.01-24.13-2.16.51-4.32,2.11-6.34,5.33.95,1.73,1.82,3.77,2.61,6.16.34.97,8.27,23.81,10.71,31.64,2.75,8.81,10.02,32.07,15.09,29.31.32-.17,1.18-.94,2.08-1.86.34-.45.69-1.01,1.02-1.7-3.41-.44-10.5-9.65-16.18-44.75"/>
    </clipPath>
    <filter id="luminosity-noclip-2" x="109.14" y="-8660.84" width="86.69" height="32766" color-interpolation-filters="sRGB" filterUnits="userSpaceOnUse">
      <feFlood flood-color="#fff" result="bg"/>
      <feBlend in="SourceGraphic" in2="bg"/>
    </filter>
    <mask id="mask-1" x="109.14" y="-8660.84" width="86.69" height="32766" maskUnits="userSpaceOnUse"/>
    <linearGradient id="linear-gradient-2" x1="-465.91" y1="866.03" x2="-465.01" y2="866.03" gradientTransform="translate(37066.12 -139914.92) rotate(-135.51) scale(124.41 -145.21) skewX(-7.34)" gradientUnits="userSpaceOnUse">
      <stop offset="0" stop-color="#898888"/>
      <stop offset=".41" stop-color="#4e4e4c"/>
      <stop offset=".72" stop-color="#2a2a27"/>
      <stop offset=".88" stop-color="#1d1d1a"/>
      <stop offset="1" stop-color="#1d1d1a"/>
    </linearGradient>
    <mask id="mask" x="109.14" y="33.69" width="86.69" height="120.1" maskUnits="userSpaceOnUse">
      <g class="cls-49">
        <g class="cls-44">
          <g class="cls-31">
            <g class="cls-37">
              <g class="cls-50">
                <polygon class="cls-22" points="153.97 153.79 109.14 99.41 151 33.69 195.83 88.07 153.97 153.79"/>
              </g>
            </g>
          </g>
        </g>
      </g>
    </mask>
    <clipPath id="clippath-2">
      <polygon class="cls-10" points="134.33 127.08 168.12 128.98 170.74 57.64 136.95 55.74 134.33 127.08"/>
    </clipPath>
    <clipPath id="clippath-3">
      <path class="cls-10" d="m152.08,80.22c-1.9-11.7-5.27-19.25-9.01-24.13-2.16.51-4.32,2.11-6.34,5.33.95,1.73,1.82,3.77,2.61,6.16.34.97,8.27,23.81,10.71,31.64,2.75,8.81,10.02,32.07,15.09,29.31.32-.17,1.18-.94,2.08-1.86.34-.45.69-1.01,1.02-1.7-3.42-.44-10.5-9.65-16.18-44.75"/>
    </clipPath>
    <linearGradient id="linear-gradient-3" x1="-465.91" y1="866.03" x2="-465.01" y2="866.03" gradientTransform="translate(37066.12 -139914.92) rotate(-135.51) scale(124.41 -145.21) skewX(-7.34)" gradientUnits="userSpaceOnUse">
      <stop offset="0" stop-color="#fff"/>
      <stop offset=".88" stop-color="#fff"/>
      <stop offset="1" stop-color="#fff"/>
    </linearGradient>
    <linearGradient id="linear-gradient-4" x1="102.33" y1="81.41" x2="158.33" y2="81.41" gradientUnits="userSpaceOnUse">
      <stop offset=".22" stop-color="#f6df03"/>
      <stop offset=".27" stop-color="#f3c40d"/>
      <stop offset=".37" stop-color="#ec8126"/>
      <stop offset=".38" stop-color="#ec7c29"/>
      <stop offset=".39" stop-color="#ec7c29"/>
      <stop offset=".49" stop-color="#ec7c29"/>
      <stop offset=".6" stop-color="#ca3b64"/>
      <stop offset=".64" stop-color="#bc207d"/>
      <stop offset=".72" stop-color="#cb1c71"/>
      <stop offset=".8" stop-color="#e11763"/>
      <stop offset=".93" stop-color="#e1246d"/>
    </linearGradient>
    <clipPath id="clippath-4">
      <path class="cls-24" d="m118.44,29.13c-4.96,18.45-12.12,50.66-16.11,69.47,2.3,6.9,3.98,12.1,4.61,14.27,5.83,19.83,5.95,28.39,2.05,33.09-.95,1.15-1.91,2.03-2.89,2.67,5.75-3.05,11.36-18.62,17.02-38.87,2.55-9.11,11.21-36.67,11.21-36.67,8.53-28.69,23.99-4.46,23.99-4.46-5.73-44.32-18.67-54.43-26.95-54.43-6.18,0-10.83,7.1-12.94,14.93"/>
    </clipPath>
    <linearGradient id="linear-gradient-5" x1="-469.52" y1="862.09" x2="-468.62" y2="862.09" gradientTransform="translate(-36661.58 -122327.52) rotate(-41.78) scale(131.43 134.32) skewX(3.8)" xlink:href="#linear-gradient-4"/>
    <linearGradient id="linear-gradient-6" x1="0" y1="98.66" x2="80.57" y2="98.66" xlink:href="#linear-gradient"/>
    <linearGradient id="linear-gradient-7" x1="0" y1="98.66" x2="80.57" y2="98.66" xlink:href="#linear-gradient"/>
    <clipPath id="clippath-5">
      <path class="cls-16" d="m7.65,164c-1.99.06-3.61-.24-4.82-.9-.92-.5-1.58-1.19-2.03-2.12-1.2-2.47-1.04-6.94.46-12.57,1.27-4.77,3.04-8.69,3.06-8.73l.03-.07.03-.07L43.31,43.06c4.73-3.29,9.24-5.78,13.41-7.4,3.72-1.45,7.23-2.24,10.41-2.33,2.41-.07,4.67.25,6.7.96,1.61.56,3.08,1.36,4.39,2.38,1.04.81,1.81,1.64,2.34,2.29l-35.5,92.72c-.86,2.25-2.05,5.19-3.39,7.62-1.95,3.53-4.2,9.21-10.25,14.46-3.25,2.81-6.73,5.1-10.37,6.81-4.13,1.94-8.38,3.08-12.63,3.39-.27.02-.54.03-.79.04Z"/>
    </clipPath>
    <linearGradient id="linear-gradient-8" x1="88.25" y1="-58.82" x2="-25.96" y2="183.93" gradientUnits="userSpaceOnUse">
      <stop offset=".35" stop-color="#3392c6"/>
      <stop offset=".51" stop-color="#4dbdb6"/>
      <stop offset=".54" stop-color="#53bcaf"/>
      <stop offset=".58" stop-color="#66bb9e"/>
      <stop offset=".64" stop-color="#86b982"/>
      <stop offset=".65" stop-color="#8cb97d"/>
      <stop offset=".68" stop-color="#8db978"/>
      <stop offset=".72" stop-color="#93bc6c"/>
      <stop offset=".75" stop-color="#9cc058"/>
      <stop offset=".79" stop-color="#a8c53b"/>
      <stop offset=".79" stop-color="#aac639"/>
      <stop offset=".94" stop-color="#b9ce33"/>
    </linearGradient>
    <filter id="luminosity-noclip-3" x="-41.99" y="7.82" width="159.98" height="185.73" color-interpolation-filters="sRGB" filterUnits="userSpaceOnUse">
      <feFlood flood-color="#fff" result="bg"/>
      <feBlend in="SourceGraphic" in2="bg"/>
    </filter>
    <clipPath id="clippath-6">
      <polygon class="cls-10" points="2.65 156.08 75.44 153.95 73.35 44.91 .56 47.04 2.65 156.08"/>
    </clipPath>
    <clipPath id="clippath-7">
      <path class="cls-10" d="m65.54,54.07c-10.75,18.03-22.44,52.32-51.31,86.28-4.46,5.25-8.32,9.13-11.65,11.94.02.06.04.13.06.19,1.11,2.79,4.04,3.88,8.67,3.25l.15-.02c23.38-3.27,30.03-22.32,35.28-37.37.49-1.39.96-2.74,1.42-4.02,9.79-26.97,20.1-55.37,25.2-69.39-3.17,2.88-5.9,5.95-7.81,9.16"/>
    </clipPath>
    <filter id="luminosity-noclip-4" x="-41.99" y="-8660.84" width="159.98" height="32766" color-interpolation-filters="sRGB" filterUnits="userSpaceOnUse">
      <feFlood flood-color="#fff" result="bg"/>
      <feBlend in="SourceGraphic" in2="bg"/>
    </filter>
    <mask id="mask-3" x="-41.99" y="-8660.84" width="159.98" height="32766" maskUnits="userSpaceOnUse"/>
    <linearGradient id="linear-gradient-9" x1="-468.28" y1="867.62" x2="-467.35" y2="867.62" gradientTransform="translate(137956.08 395.57) rotate(-54.65) scale(145.12 -129.85) skewX(-5.29)" xlink:href="#linear-gradient-2"/>
    <mask id="mask-2" x="-41.99" y="7.82" width="159.98" height="185.73" maskUnits="userSpaceOnUse">
      <g class="cls-60">
        <g class="cls-33">
          <g class="cls-31">
            <g class="cls-35">
              <g class="cls-34">
                <polygon class="cls-12" points="-41.99 124.08 22.22 7.82 117.99 77.3 53.79 193.55 -41.99 124.08"/>
              </g>
            </g>
          </g>
        </g>
      </g>
    </mask>
    <clipPath id="clippath-8">
      <polygon class="cls-10" points="2.65 156.08 75.44 153.95 73.35 44.91 .56 47.04 2.65 156.08"/>
    </clipPath>
    <clipPath id="clippath-9">
      <path class="cls-10" d="m65.54,54.07c-10.75,18.03-22.44,52.33-51.31,86.28-4.46,5.25-8.32,9.13-11.65,11.94.02.06.04.13.06.19,1.11,2.79,4.04,3.88,8.67,3.25l.15-.02c23.38-3.27,30.03-22.32,35.28-37.37.49-1.39.96-2.74,1.42-4.02,9.79-26.97,20.1-55.37,25.2-69.39-3.17,2.88-5.9,5.95-7.81,9.16"/>
    </clipPath>
    <linearGradient id="linear-gradient-10" x1="-468.28" y1="867.62" x2="-467.35" y2="867.62" gradientTransform="translate(137956.08 395.56) rotate(-54.65) scale(145.12 -129.85) skewX(-5.29)" gradientUnits="userSpaceOnUse">
      <stop offset="0" stop-color="#fff"/>
      <stop offset=".7" stop-color="#fff"/>
      <stop offset="1" stop-color="#fff"/>
    </linearGradient>
    <filter id="luminosity-noclip-5" x="-1.83" y="46.54" width="81.71" height="111.75" color-interpolation-filters="sRGB" filterUnits="userSpaceOnUse">
      <feFlood flood-color="#fff" result="bg"/>
      <feBlend in="SourceGraphic" in2="bg"/>
    </filter>
    <clipPath id="clippath-10">
      <polygon class="cls-10" points="3.67 157.8 76.46 155.68 74.37 46.63 1.58 48.76 3.67 157.8"/>
    </clipPath>
    <clipPath id="clippath-11">
      <path class="cls-10" d="m48.42,114.42c-.46,1.28-.94,2.63-1.42,4.02-5.25,15.04-11.91,34.08-35.31,37.32l-.15.02c-3.75.51-6.37-.14-7.83-1.87-.04.03-.08.07-.11.1.02.06.04.13.06.19,1.11,2.79,4.04,3.88,8.67,3.25l.15-.02c23.38-3.27,30.03-22.32,35.28-37.37.49-1.39.96-2.74,1.42-4.02,9.79-26.97,20.1-55.37,25.2-69.39-.68.62-1.34,1.25-1.97,1.88-5.41,14.87-14.91,40.99-23.97,65.9"/>
    </clipPath>
    <filter id="luminosity-noclip-6" x="-1.83" y="-8660.84" width="81.71" height="32766" color-interpolation-filters="sRGB" filterUnits="userSpaceOnUse">
      <feFlood flood-color="#fff" result="bg"/>
      <feBlend in="SourceGraphic" in2="bg"/>
    </filter>
    <mask id="mask-5" x="-1.83" y="-8660.84" width="81.71" height="32766" maskUnits="userSpaceOnUse"/>
    <radialGradient id="radial-gradient" cx="-461.44" cy="862.15" fx="-461.44" fy="862.15" r=".87" gradientTransform="translate(-31619.83 -111911.45) rotate(178.98) scale(76.23 -130.6) skewX(4.8)" gradientUnits="userSpaceOnUse">
      <stop offset="0" stop-color="#ececec"/>
      <stop offset=".12" stop-color="#cecece"/>
      <stop offset=".44" stop-color="#838381"/>
      <stop offset=".7" stop-color="#4c4c49"/>
      <stop offset=".89" stop-color="#292927"/>
      <stop offset="1" stop-color="#1d1d1a"/>
    </radialGradient>
    <mask id="mask-4" x="-1.83" y="46.54" width="81.71" height="111.75" maskUnits="userSpaceOnUse">
      <g class="cls-26">
        <g class="cls-57">
          <g class="cls-31">
            <g class="cls-1">
              <g class="cls-39">
                <polygon class="cls-7" points="76.44 156.89 -1.83 158.29 1.61 47.94 79.88 46.54 76.44 156.89"/>
              </g>
            </g>
          </g>
        </g>
      </g>
    </mask>
    <clipPath id="clippath-12">
      <polygon class="cls-10" points="3.67 157.8 76.46 155.68 74.37 46.63 1.58 48.76 3.67 157.8"/>
    </clipPath>
    <clipPath id="clippath-13">
      <path class="cls-10" d="m48.42,114.42c-.46,1.28-.94,2.63-1.42,4.02-5.25,15.04-11.91,34.08-35.31,37.32l-.15.02c-3.75.5-6.37-.14-7.83-1.87-.04.03-.08.07-.11.1.02.06.04.13.06.19,1.11,2.79,4.04,3.88,8.67,3.25l.15-.02c23.38-3.27,30.03-22.32,35.28-37.37.49-1.39.96-2.74,1.42-4.02,9.79-26.97,20.1-55.37,25.2-69.39-.68.62-1.34,1.25-1.97,1.88-5.41,14.87-14.92,40.99-23.97,65.9"/>
    </clipPath>
    <radialGradient id="radial-gradient-2" cx="-461.44" cy="862.15" fx="-461.44" fy="862.15" r=".87" gradientTransform="translate(-31619.83 -111911.45) rotate(178.98) scale(76.23 -130.6) skewX(4.8)" gradientUnits="userSpaceOnUse">
      <stop offset="0" stop-color="#fff"/>
      <stop offset="1" stop-color="#fff"/>
    </radialGradient>
    <linearGradient id="linear-gradient-11" x1="127.7" y1="176.44" x2="34.94" y2="-14.43" xlink:href="#linear-gradient-4"/>
    <filter id="luminosity-noclip-7" x="19.53" y="-39.18" width="99.59" height="151.1" color-interpolation-filters="sRGB" filterUnits="userSpaceOnUse">
      <feFlood flood-color="#fff" result="bg"/>
      <feBlend in="SourceGraphic" in2="bg"/>
    </filter>
    <clipPath id="clippath-14">
      <rect class="cls-10" x="39.85" y="2.46" width="58.95" height="68.28"/>
    </clipPath>
    <clipPath id="clippath-15">
      <path class="cls-10" d="m78.26,44.95c7.56,5.19,14.58,15.09,20.54,25.8-4.83-18.29-10.41-39.05-14.2-52.03-2.13-7.28-7.08-15.92-14.09-16.24h0c-10.37-.47-21.15,17.49-30.66,51.65,1.18-1.04,2.56-2.14,4.07-3.15,8.49-12.59,18.18-17.12,34.33-6.02"/>
    </clipPath>
    <filter id="luminosity-noclip-8" x="19.53" y="-8660.84" width="99.59" height="32766" color-interpolation-filters="sRGB" filterUnits="userSpaceOnUse">
      <feFlood flood-color="#fff" result="bg"/>
      <feBlend in="SourceGraphic" in2="bg"/>
    </filter>
    <mask id="mask-7" x="19.53" y="-8660.84" width="99.59" height="32766" maskUnits="userSpaceOnUse"/>
    <linearGradient id="linear-gradient-12" x1="-467.69" y1="871.23" x2="-466.6" y2="871.23" gradientTransform="translate(61571.58 702.15) rotate(-54.21) scale(64.27 -57.71) skewX(-5.49)" gradientUnits="userSpaceOnUse">
      <stop offset="0" stop-color="#fff"/>
      <stop offset=".06" stop-color="#eaeaea"/>
      <stop offset=".5" stop-color="#575755"/>
      <stop offset=".69" stop-color="#1d1d1a"/>
      <stop offset="1" stop-color="#1d1d1a"/>
    </linearGradient>
    <mask id="mask-6" x="19.53" y="-39.18" width="99.59" height="151.1" maskUnits="userSpaceOnUse">
      <g class="cls-25">
        <g class="cls-53">
          <g class="cls-31">
            <g class="cls-32">
              <g class="cls-56">
                <polygon class="cls-4" points="19.53 50.72 57.02 -39.18 119.12 22.02 81.63 111.92 19.53 50.72"/>
              </g>
            </g>
          </g>
        </g>
      </g>
    </mask>
    <clipPath id="clippath-16">
      <rect class="cls-10" x="39.85" y="2.46" width="58.95" height="68.28"/>
    </clipPath>
    <clipPath id="clippath-17">
      <path class="cls-10" d="m78.26,44.95c7.56,5.19,14.58,15.09,20.54,25.8-4.83-18.29-10.41-39.05-14.2-52.03-2.13-7.28-7.08-15.92-14.09-16.24h0c-10.37-.47-21.15,17.49-30.66,51.65,1.18-1.04,2.56-2.14,4.07-3.15,8.49-12.59,18.18-17.11,34.33-6.02"/>
    </clipPath>
    <linearGradient id="linear-gradient-13" x1="-467.69" y1="871.23" x2="-466.6" y2="871.23" gradientTransform="translate(61571.58 702.15) rotate(-54.21) scale(64.27 -57.71) skewX(-5.49)" gradientUnits="userSpaceOnUse">
      <stop offset="0" stop-color="#e6e7e8"/>
      <stop offset=".13" stop-color="#cddfea"/>
      <stop offset=".38" stop-color="#a5d4ed"/>
      <stop offset=".57" stop-color="#8dcdef"/>
      <stop offset=".69" stop-color="#84cbf0"/>
      <stop offset="1" stop-color="#84cbf0"/>
    </linearGradient>
    <filter id="luminosity-noclip-9" x="37.45" y=".88" width="63.76" height="70.98" color-interpolation-filters="sRGB" filterUnits="userSpaceOnUse">
      <feFlood flood-color="#fff" result="bg"/>
      <feBlend in="SourceGraphic" in2="bg"/>
    </filter>
    <clipPath id="clippath-18">
      <rect class="cls-10" x="39.85" y="2.46" width="58.95" height="68.28"/>
    </clipPath>
    <clipPath id="clippath-19">
      <path class="cls-10" d="m70.42,5.05h0c7.02.3,11.97,8.93,14.1,16.22,3.45,11.8,8.37,30.02,12.87,46.98.48.83.95,1.66,1.42,2.49-4.83-18.29-10.41-39.05-14.2-52.03-2.13-7.28-7.08-15.92-14.09-16.24h0c-10.37-.47-21.15,17.49-30.66,51.65.28-.25.57-.49.87-.74C50,21.41,60.4,4.63,70.42,5.05"/>
    </clipPath>
    <filter id="luminosity-noclip-10" x="37.45" y="-8660.84" width="63.76" height="32766" color-interpolation-filters="sRGB" filterUnits="userSpaceOnUse">
      <feFlood flood-color="#fff" result="bg"/>
      <feBlend in="SourceGraphic" in2="bg"/>
    </filter>
    <mask id="mask-9" x="37.45" y="-8660.84" width="63.76" height="32766" maskUnits="userSpaceOnUse"/>
    <radialGradient id="radial-gradient-3" cx="-459.9" cy="863.49" fx="-459.9" fy="863.49" r=".91" gradientTransform="translate(-29922.98 -165730.54) rotate(-178.91) scale(77.75 -191.25) skewX(2.25)" gradientUnits="userSpaceOnUse">
      <stop offset="0" stop-color="#f5f6f6"/>
      <stop offset=".08" stop-color="#d0d1d1"/>
      <stop offset=".2" stop-color="#a1a2a1"/>
      <stop offset=".33" stop-color="#787977"/>
      <stop offset=".45" stop-color="#575755"/>
      <stop offset=".58" stop-color="#3d3d3b"/>
      <stop offset=".72" stop-color="#2b2b28"/>
      <stop offset=".85" stop-color="#20201d"/>
      <stop offset="1" stop-color="#1d1d1a"/>
    </radialGradient>
    <mask id="mask-8" x="37.45" y=".88" width="63.76" height="70.98" maskUnits="userSpaceOnUse">
      <g class="cls-41">
        <g class="cls-52">
          <g class="cls-31">
            <g class="cls-45">
              <g class="cls-36">
                <polygon class="cls-21" points="98.76 71.86 37.45 70.7 39.89 .88 101.21 2.05 98.76 71.86"/>
              </g>
            </g>
          </g>
        </g>
      </g>
    </mask>
    <linearGradient id="linear-gradient-14" x1="131.5" y1="69.32" x2="136.04" y2="8.2" gradientUnits="userSpaceOnUse">
      <stop offset="0" stop-color="#fff" stop-opacity=".4"/>
      <stop offset=".11" stop-color="#fff" stop-opacity=".32"/>
      <stop offset=".33" stop-color="#fff" stop-opacity=".18"/>
      <stop offset=".54" stop-color="#fff" stop-opacity=".08"/>
      <stop offset=".73" stop-color="#fff" stop-opacity=".02"/>
      <stop offset=".88" stop-color="#fff" stop-opacity="0"/>
    </linearGradient>
    <linearGradient id="linear-gradient-15" x1="116.96" y1="140.25" x2="87.11" y2="92.7" gradientUnits="userSpaceOnUse">
      <stop offset="0" stop-color="#fff" stop-opacity=".5"/>
      <stop offset="0" stop-color="#fff" stop-opacity=".5"/>
      <stop offset=".21" stop-color="#fff" stop-opacity=".32"/>
      <stop offset=".4" stop-color="#fff" stop-opacity=".18"/>
      <stop offset=".58" stop-color="#fff" stop-opacity=".08"/>
      <stop offset=".75" stop-color="#fff" stop-opacity=".02"/>
      <stop offset=".88" stop-color="#fff" stop-opacity="0"/>
    </linearGradient>
  </defs>
  <g id="Layer_1-2" data-name="Layer 1">
    <g>
      <g>
        <path class="cls-3" d="m134.77,65.09c.98,1.61,1.91,3.65,2.77,6.26,0,0,8.26,23.73,10.7,31.52,7.49,23.95,14.33,39.17,20.03,26.81,2.16-4.68.8-12.1-2.9-29.52-.8-3.75-4.76-22.04-8.44-37.69,0,0-4.83-6.03-11.89-6.43-3.5-.2-7.15,2.01-10.26,9.04"/>
        <g class="cls-51">
          <g class="cls-29">
            <g class="cls-47">
              <polygon class="cls-18" points="153.97 153.79 109.14 99.41 151 33.69 195.83 88.07 153.97 153.79"/>
            </g>
          </g>
        </g>
        <g>
          <path class="cls-58" d="m118.44,29.13c-4.96,18.45-12.12,50.66-16.11,69.47,2.3,6.9,3.98,12.1,4.61,14.27,5.83,19.83,5.95,28.39,2.05,33.09-.95,1.15-1.91,2.03-2.89,2.67,5.75-3.05,11.36-18.62,17.02-38.87,2.55-9.11,11.21-36.67,11.21-36.67,8.53-28.69,23.99-4.46,23.99-4.46-5.73-44.32-18.67-54.43-26.95-54.43-6.18,0-10.83,7.1-12.94,14.93"/>
          <g class="cls-38">
            <polygon class="cls-9" points="130.75 183.12 220.02 84.61 133.59 -20.3 44.31 78.21 130.75 183.12"/>
          </g>
        </g>
        <g>
          <path class="cls-28" d="m7.65,164c-1.99.06-3.61-.24-4.82-.9-.92-.5-1.58-1.19-2.03-2.12-1.2-2.47-1.04-6.94.46-12.57,1.27-4.77,3.04-8.69,3.06-8.73l.03-.07.03-.07L43.31,43.06c4.73-3.29,9.24-5.78,13.41-7.4,3.72-1.45,7.23-2.24,10.41-2.33,2.41-.07,4.67.25,6.7.96,1.61.56,3.08,1.36,4.39,2.38,1.04.81,1.81,1.64,2.34,2.29l-35.5,92.72c-.86,2.25-2.05,5.19-3.39,7.62-1.95,3.53-4.2,9.21-10.25,14.46-3.25,2.81-6.73,5.1-10.37,6.81-4.13,1.94-8.38,3.08-12.63,3.39-.27.02-.54.03-.79.04Z"/>
          <g class="cls-55">
            <polygon class="cls-20" points="120.59 59.94 41.9 212.8 -90.42 133.45 -11.73 -19.41 120.59 59.94"/>
          </g>
        </g>
        <path class="cls-5" d="m35.9,61.45s21.92-24.34,33.33,7.19c0,0,2.5-6.72,2.16-7.46s-12.33-10.35-13.62-10.84-8.16-.7-8.16-.7l-8.97,5.88-4.73,5.93Z"/>
        <g class="cls-27">
          <g class="cls-48">
            <g class="cls-43">
              <polygon class="cls-23" points="-41.99 124.08 22.22 7.82 117.99 77.3 53.79 193.55 -41.99 124.08"/>
            </g>
          </g>
        </g>
        <g class="cls-42">
          <g class="cls-40">
            <g class="cls-30">
              <polygon class="cls-17" points="76.44 156.89 -1.83 158.29 1.61 47.94 79.88 46.54 76.44 156.89"/>
            </g>
          </g>
        </g>
        <path class="cls-8" d="m35.89,61.45s22.78-27.41,33.69,5.51c0,0,10.74,30.81,13.89,40.85,9.66,30.84,18.65,50.88,26.8,37.13,3.07-5.19,2.98-14.65-1.62-36.56-1.86-8.86-14.85-63.2-22.94-90.94C83.08,8.42,77.36,0,70.02,0c-9.65,0-22.17,14.61-34.12,61.43"/>
        <g class="cls-46">
          <g class="cls-59">
            <g class="cls-2">
              <g class="cls-54">
                <polygon class="cls-13" points="19.53 50.72 57.02 -39.18 119.12 22.02 81.63 111.92 19.53 50.72"/>
              </g>
            </g>
          </g>
        </g>
        <path class="cls-14" d="m104.31,89.5l13.22-54.7c.9-3.7,2.25-7.23,4.09-10.35,3.47-5.89,9.56-12.03,18.14-5.43,0,0,13.54,11.26,17.8,48.61l.63.91s-5-52.03-26.12-54.42c0,0-10.07-2.57-15.17,20.02l-12.68,54.97.09.39Z"/>
        <path class="cls-19" d="m105.99,82.22s17.58-41.56,38.48-31.83c0,0,7.15,4.01,9.26,12.8l2.58,2.71s-4.85-29.56-14-44.53c0,0-19.31-37.38-36.32,60.85Z"/>
        <path class="cls-5" d="m136.02,68.25s9.11-17.56,22.3.38c0,0-13.46-21.01-22.3-.38Z"/>
        <path class="cls-6" d="m109.84,137.96s-11.8-.24-19.83-57.56c0,0-4.26-33.31-28.06-33.92,0,0,14.38,19.11,21.52,48.62s19.54,59.64,26.38,42.86Z"/>
      </g>
      <g>
        <path class="cls-15" d="m181.93,80.43c0-13.33,7.77-19.27,17.82-19.27,6.02,0,10.81,2.36,13.78,6.85,2.97-4.49,7.77-6.85,13.78-6.85,10.05,0,17.82,5.94,17.82,19.27v31.53h-12.34v-31.53c0-5.79-2.82-7.84-6.55-7.84s-6.55,2.06-6.55,7.84v31.53h-12.34v-31.53c0-5.79-2.89-7.84-6.55-7.84s-6.55,2.06-6.55,7.84v31.53h-12.34v-31.53Z"/>
        <path class="cls-15" d="m251.31,93.6c0-12.11,8.38-20.26,20.33-20.26s20.03,7.84,20.03,20.18v18.43h-10.51v-6.24c-1.98,4.65-6.24,7.24-11.65,7.24-8.38,0-18.2-6.24-18.2-19.34Zm28.94-.46c0-5.41-3.5-9.14-8.68-9.14s-8.68,3.73-8.68,9.14,3.5,9.14,8.68,9.14,8.68-3.73,8.68-9.14Z"/>
        <path class="cls-15" d="m299.44,115.61h11.42c1.14,2.51,3.12,3.5,6.78,3.5,5.03,0,7.24-2.36,7.24-8.07v-3.73c-2.13,3.27-5.41,5.03-9.37,5.03-7.92,0-16.37-5.33-16.37-19.12v-18.89h11.42v18.89c0,5.94,2.89,8.45,7.16,8.45s7.16-2.67,7.16-8.45v-18.89h11.42v36.33c0,13.1-8.38,18.35-18.66,18.35-8.91,0-16.3-4.11-18.2-13.4Z"/>
        <path class="cls-15" d="m343.46,100.53h11.27c.08,1.98,1.52,2.97,4.65,2.97,3.5,0,4.65-1.22,4.65-2.82,0-2.51-2.74-2.74-6.24-3.27-5.18-.76-13.71-2.06-13.71-11.12,0-7.62,6.02-12.95,15.38-12.95s15.16,5.41,15.38,12.19h-11.12c-.3-1.75-1.83-2.74-4.11-2.74-2.82,0-3.96,1.45-3.96,2.97,0,2.28,2.74,2.59,6.24,3.12,5.41.76,13.71,2.21,13.71,11.12,0,7.77-6.4,12.95-16.07,12.95s-15.92-5.18-16.07-12.41Z"/>
        <path class="cls-15" d="m380.02,93.6c0-12.11,8.38-20.26,20.33-20.26s20.03,7.84,20.03,20.18v18.43h-10.51v-6.24c-1.98,4.65-6.24,7.24-11.65,7.24-8.38,0-18.2-6.24-18.2-19.34Zm28.94-.46c0-5.41-3.5-9.14-8.68-9.14s-8.68,3.73-8.68,9.14,3.5,9.14,8.68,9.14,8.68-3.73,8.68-9.14Z"/>
        <path class="cls-15" d="m427.84,90.56c0-11.73,6.85-17.21,16.91-17.21s16.83,5.41,16.91,17.29v.23h-11.42v-.3c0-5.03-2.28-6.55-5.48-6.55s-5.48,1.52-5.48,6.55v21.4h-11.42v-21.4Z"/>
        <path class="cls-15" d="m464.78,93.6c0-12.11,8.38-20.26,20.33-20.26s20.03,7.84,20.03,20.18v18.43h-10.51v-6.24c-1.98,4.65-6.24,7.24-11.65,7.24-8.38,0-18.2-6.24-18.2-19.34Zm28.94-.46c0-5.41-3.5-9.14-8.68-9.14s-8.68,3.73-8.68,9.14,3.5,9.14,8.68,9.14,8.68-3.73,8.68-9.14Z"/>
        <path class="cls-15" d="m513.82,57.89h11.42v20.49c2.28-3.27,5.48-5.03,9.37-5.03,7.92,0,16.37,5.33,16.37,19.12v19.5h-11.42v-19.5c0-5.94-2.89-8.45-7.16-8.45s-7.16,2.67-7.16,8.45v19.5h-11.42v-54.07Z"/>
      </g>
      <g>
        <path class="cls-11" d="m438.85,131.6c-1.14,1.21-2.57,1.57-3.85,1.57-3.11,0-5.06-2.1-5.06-4.66s2.04-4.74,4.84-4.74c2.31,0,4.48,1.45,4.52,4.68h-8.01v.14c0,1.93,1.45,3.38,3.71,3.38,1.08,0,2.15-.34,3.07-1.19l.78.81Zm-7.41-4.19h6.45c-.42-1.88-1.83-2.44-3.07-2.44-1.45,0-2.86.76-3.38,2.44Z"/>
        <path class="cls-11" d="m450.13,132.97h-1.36v-1.79c-.8,1.36-2.08,1.99-3.58,1.99-2.73,0-4.48-2.12-4.48-4.7s1.75-4.7,4.48-4.7c1.5,0,2.78.63,3.58,1.99v-1.79h1.36v9Zm-4.81-1.01c1.92,0,3.47-1.39,3.47-3.49s-1.56-3.49-3.47-3.49c-2.04,0-3.25,1.55-3.25,3.49s1.21,3.49,3.25,3.49Z"/>
        <path class="cls-11" d="m457.07,126.01c-.25-.76-.83-1.05-1.45-1.05-1.05,0-1.64.71-1.64,1.39,0,.74.63,1.1,1.25,1.3l1.34.43c1.59.52,2.15,1.46,2.15,2.46,0,1.65-1.5,2.62-3.16,2.62-1.54,0-2.91-.76-3.33-2.15l1.19-.31c.27.76,1.12,1.27,2.13,1.27s1.81-.56,1.81-1.43c0-.7-.51-1.07-1.28-1.32l-1.27-.42c-1.28-.42-2.19-1.14-2.19-2.4,0-1.43,1.1-2.64,2.91-2.64,1.17,0,2.4.58,2.75,1.95l-1.21.29Z"/>
        <path class="cls-11" d="m466.98,123.97h1.57l-5.55,13.05h-1.37l1.74-4.18-3.89-8.88h1.55l3.06,7.34,2.89-7.34Z"/>
        <path class="cls-11" d="m478.79,126.01c-.25-.76-.83-1.05-1.45-1.05-1.05,0-1.65.71-1.65,1.39,0,.74.63,1.1,1.25,1.3l1.34.43c1.59.52,2.15,1.46,2.15,2.46,0,1.65-1.5,2.62-3.16,2.62-1.54,0-2.91-.76-3.33-2.15l1.19-.31c.27.76,1.12,1.27,2.13,1.27s1.81-.56,1.81-1.43c0-.7-.51-1.07-1.28-1.32l-1.27-.42c-1.28-.42-2.19-1.14-2.19-2.4,0-1.43,1.1-2.64,2.91-2.64,1.18,0,2.4.58,2.75,1.95l-1.21.29Z"/>
        <path class="cls-11" d="m489.33,127.86c0-2.19-1.16-2.87-2.31-2.87-.99,0-3.04.7-3.07,3.62v4.37h-1.36v-13.07h1.36v5.98c.49-1.43,1.83-2.12,3.16-2.12,1.95,0,3.58,1.14,3.58,4.09v5.12h-1.36v-5.12Z"/>
        <path class="cls-11" d="m497.48,123.77c2.6,0,4.74,2.13,4.74,4.7s-2.13,4.7-4.74,4.7-4.72-2.08-4.72-4.7,2.11-4.7,4.72-4.7Zm0,8.19c1.86,0,3.38-1.55,3.38-3.47s-1.52-3.51-3.38-3.51-3.36,1.57-3.36,3.51,1.52,3.47,3.36,3.47Z"/>
        <path class="cls-11" d="m504.44,123.97h1.36v1.79c.8-1.36,2.08-1.99,3.58-1.99,2.73,0,4.48,2.12,4.48,4.7s-1.75,4.7-4.48,4.7c-1.5,0-2.78-.63-3.58-1.99v5.84h-1.36v-13.05Zm4.81,1.01c-1.92,0-3.47,1.39-3.47,3.49s1.55,3.49,3.47,3.49c2.04,0,3.25-1.55,3.25-3.49s-1.21-3.49-3.25-3.49Z"/>
        <path class="cls-11" d="m516.11,123.97h1.36v1.79c.8-1.36,2.08-1.99,3.58-1.99,2.73,0,4.48,2.12,4.48,4.7s-1.75,4.7-4.48,4.7c-1.5,0-2.78-.63-3.58-1.99v5.84h-1.36v-13.05Zm4.81,1.01c-1.92,0-3.47,1.39-3.47,3.49s1.55,3.49,3.47,3.49c2.04,0,3.25-1.55,3.25-3.49s-1.21-3.49-3.25-3.49Z"/>
        <path class="cls-11" d="m528.51,119.94c.56,0,.99.43.99,1.01s-.43.99-.99.99-.98-.42-.98-.99.42-1.01.98-1.01Zm.69,13.03h-1.36v-9h1.36v9Z"/>
        <path class="cls-11" d="m538.94,127.86c0-2.19-1.16-2.87-2.31-2.87-.99,0-3.04.7-3.07,3.62v4.37h-1.36v-9h1.36v1.92c.49-1.43,1.83-2.12,3.16-2.12,1.95,0,3.58,1.14,3.58,4.09v5.12h-1.36v-5.12Z"/>
        <path class="cls-11" d="m551.81,132.86c0,2.87-2.1,4.36-4.66,4.36-1.75,0-2.87-.51-3.83-1.25l.54-1.07c.98.8,2.1,1.1,3.29,1.1,1.97,0,3.31-1.19,3.31-3.25v-1.57c-.8,1.36-2.08,1.99-3.58,1.99-2.73,0-4.48-2.12-4.48-4.7s1.75-4.7,4.48-4.7c1.5,0,2.78.63,3.58,1.99v-1.79h1.36v8.89Zm-4.81-.9c1.92,0,3.47-1.39,3.47-3.49s-1.55-3.49-3.47-3.49c-2.04,0-3.25,1.55-3.25,3.49s1.21,3.49,3.25,3.49Z"/>
      </g>
    </g>
  </g>
</svg>